# Blender v3.1.2 OBJ File: ''
# www.blender.org
mtllib bush.mtl
o 円_円.004
v -0.147931 1.782118 -0.238849
v 0.000000 1.802883 0.000000
v -0.209206 1.782118 0.000000
v 0.000000 1.782118 -0.337783
v 0.147931 1.782118 -0.238849
v 0.209206 1.782118 0.000000
v 0.147931 1.782118 0.238849
v 0.000000 1.782118 0.337783
v -0.147931 1.782118 0.238849
v 0.297095 1.663619 0.479689
v 0.000000 1.663619 0.678383
v -0.297095 1.663619 0.479689
v -0.420156 1.663619 0.000000
v -0.297095 1.663619 -0.479689
v 0.000000 1.663619 -0.678383
v 0.297095 1.663619 -0.479689
v 0.420156 1.663619 0.000000
v 0.489386 1.319135 -0.790160
v 0.692096 1.319135 0.000000
v 0.489386 1.319135 0.790160
v 0.000000 1.319135 1.117455
v -0.489386 1.319135 0.790160
v -0.692096 1.319135 0.000000
v -0.489386 1.319135 -0.790160
v 0.000000 1.319135 -1.117455
v 0.592158 0.508947 0.956096
v 0.837438 0.508947 0.000000
v 0.762704 0.037484 0.000000
v 0.539313 0.037484 0.870773
v -0.592158 0.508947 0.956096
v 0.000000 0.508947 1.352123
v 0.000000 0.037484 1.231459
v -0.539313 0.037484 0.870773
v -0.592158 0.508947 -0.956096
v -0.837438 0.508947 0.000000
v -0.762704 0.037484 0.000000
v -0.539313 0.037484 -0.870773
v 0.592158 0.508947 -0.956096
v 0.539313 0.037484 -0.870773
v 0.000000 0.508947 -1.352123
v 0.000000 0.037484 -1.231459
v 0.000000 0.900767 -1.318943
v 0.577627 0.900767 -0.932633
v -0.577627 0.900767 -0.932634
v -0.577627 0.900767 0.932634
v -0.816888 0.900767 0.000000
v 0.577627 0.900767 0.932634
v 0.000000 0.900767 1.318943
v 0.816888 0.900767 0.000000
vt 0.501489 0.526166
vt 0.514687 0.506955
vt 0.496186 0.500000
vt 0.484817 0.530243
vt 0.474959 0.516193
vt 0.477686 0.493045
vt 0.490883 0.473834
vt 0.507555 0.469757
vt 0.517413 0.483807
vt 0.484159 0.444323
vt 0.536702 0.515231
vt 0.508213 0.555677
vt 0.450460 0.533966
vt 0.455670 0.484769
vt 0.541912 0.466034
vt 0.408073 0.466876
vt 0.520224 0.436057
vt 0.470714 0.389168
vt 0.584299 0.533124
vt 0.472148 0.563943
vt 0.521658 0.610832
vt 0.404011 0.566606
vt 0.588361 0.433394
vt 0.344206 0.069491
vt 0.248929 0.407050
vt 0.423354 0.237682
vt 0.723785 0.350622
vt 0.668273 0.042230
vt 0.592648 0.243402
vt 0.648166 0.930509
vt 0.743443 0.592950
vt 0.569018 0.762318
vt 0.098243 0.723779
vt 0.268587 0.649378
vt 0.894129 0.276221
vt 0.324099 0.957770
vt 0.399724 0.756598
vt 0.345297 0.604092
vt 0.450290 0.622088
vt 0.426962 0.684142
vt 0.541138 0.677713
vt 0.652162 0.558635
vt 0.647075 0.395908
vt 0.542082 0.377912
vt 0.451235 0.322287
vt 0.565410 0.315857
vt 0.340210 0.441365
vt 0.098243 0.350403
vt 0.894129 0.649597
vn -0.0987 0.9948 -0.0253
vn -0.0410 0.9973 -0.0613
vn 0.0410 0.9973 -0.0613
vn 0.0987 0.9948 -0.0253
vn 0.0987 0.9948 0.0253
vn 0.0410 0.9973 0.0613
vn -0.0410 0.9973 0.0613
vn -0.0987 0.9948 0.0253
vn 0.2146 0.9225 0.3209
vn -0.4859 0.8651 0.1247
vn -0.2146 0.9225 -0.3209
vn 0.2146 0.9225 -0.3209
vn 0.4859 0.8651 0.1247
vn -0.2146 0.9225 0.3209
vn -0.4859 0.8651 -0.1247
vn 0.4859 0.8651 -0.1247
vn 0.7695 0.6074 -0.1974
vn 0.3816 0.7272 0.5706
vn -0.7695 0.6074 0.1974
vn -0.3816 0.7272 -0.5706
vn 0.3816 0.7272 -0.5706
vn 0.7695 0.6074 0.1974
vn -0.3816 0.7272 0.5706
vn -0.7695 0.6074 -0.1974
vn 0.9574 -0.1518 0.2456
vn -0.5438 -0.2081 0.8130
vn -0.9574 -0.1518 -0.2456
vn 0.9574 -0.1518 -0.2456
vn 0.5438 -0.2081 0.8130
vn -0.9574 -0.1518 0.2456
vn -0.5438 -0.2081 -0.8130
vn 0.5438 -0.2081 -0.8130
vn 0.5161 0.3717 -0.7717
vn 0.5545 0.0702 -0.8292
vn -0.5161 0.3717 -0.7717
vn -0.5545 0.0702 -0.8292
vn -0.9306 0.2776 0.2387
vn -0.9674 0.0507 0.2482
vn 0.5161 0.3717 0.7717
vn 0.5545 0.0702 0.8292
vn 0.9306 0.2776 -0.2387
vn 0.9674 0.0507 -0.2482
vn -0.9306 0.2776 -0.2387
vn -0.9674 0.0507 -0.2482
vn -0.5161 0.3717 0.7717
vn -0.5545 0.0702 0.8292
vn 0.9306 0.2776 0.2387
vn 0.9674 0.0507 0.2482
usemtl マテリアル.007
s 1
f 1/1/1 3/2/1 2/3/1
f 4/4/2 1/1/2 2/3/2
f 5/5/3 4/4/3 2/3/3
f 6/6/4 5/5/4 2/3/4
f 6/6/5 2/3/5 7/7/5
f 8/8/6 7/7/6 2/3/6
f 9/9/7 8/8/7 2/3/7
f 3/2/8 9/9/8 2/3/8
f 8/8/9 10/10/9 7/7/9
f 13/11/10 9/9/10 3/2/10
f 4/4/11 14/12/11 1/1/11
f 16/13/12 4/4/12 5/5/12
f 7/7/13 17/14/13 6/6/13
f 12/15/14 8/8/14 9/9/14
f 1/1/15 13/11/15 3/2/15
f 17/14/16 5/5/16 6/6/16
f 19/16/17 16/13/17 17/14/17
f 11/17/18 20/18/18 10/10/18
f 23/19/19 12/15/19 13/11/19
f 15/20/20 24/21/20 14/12/20
f 18/22/21 15/20/21 16/13/21
f 10/10/22 19/16/22 17/14/22
f 22/23/23 11/17/23 12/15/23
f 14/12/24 23/19/24 13/11/24
f 29/24/25 27/25/25 26/26/25
f 30/27/26 32/28/26 31/29/26
f 37/30/27 35/31/27 34/32/27
f 27/25/28 39/33/28 38/34/28
f 32/28/29 26/26/29 31/29/29
f 35/31/30 33/35/30 30/27/30
f 41/36/31 34/32/31 40/37/31
f 38/34/32 41/36/32 40/37/32
f 43/38/33 25/39/33 18/22/33
f 38/34/34 42/40/34 43/38/34
f 25/39/35 44/41/35 24/21/35
f 42/40/36 34/32/36 44/41/36
f 46/42/37 22/23/37 23/19/37
f 35/31/38 45/43/38 46/42/38
f 21/44/39 47/45/39 20/18/39
f 48/46/40 26/26/40 47/45/40
f 49/47/41 18/22/41 19/16/41
f 27/25/42 43/38/42 49/47/42
f 24/21/43 46/42/43 23/19/43
f 44/41/44 35/31/44 46/42/44
f 45/43/45 21/44/45 22/23/45
f 30/27/46 48/46/46 45/43/46
f 20/18/47 49/47/47 19/16/47
f 47/45/48 27/25/48 49/47/48
f 8/8/9 11/17/9 10/10/9
f 13/11/10 12/15/10 9/9/10
f 4/4/11 15/20/11 14/12/11
f 16/13/12 15/20/12 4/4/12
f 7/7/13 10/10/13 17/14/13
f 12/15/14 11/17/14 8/8/14
f 1/1/15 14/12/15 13/11/15
f 17/14/16 16/13/16 5/5/16
f 19/16/17 18/22/17 16/13/17
f 11/17/18 21/44/18 20/18/18
f 23/19/19 22/23/19 12/15/19
f 15/20/20 25/39/20 24/21/20
f 18/22/21 25/39/21 15/20/21
f 10/10/22 20/18/22 19/16/22
f 22/23/23 21/44/23 11/17/23
f 14/12/24 24/21/24 23/19/24
f 29/24/25 28/48/25 27/25/25
f 30/27/26 33/35/26 32/28/26
f 37/30/27 36/49/27 35/31/27
f 27/25/28 28/48/28 39/33/28
f 32/28/29 29/24/29 26/26/29
f 35/31/30 36/49/30 33/35/30
f 41/36/31 37/30/31 34/32/31
f 38/34/32 39/33/32 41/36/32
f 43/38/33 42/40/33 25/39/33
f 38/34/34 40/37/34 42/40/34
f 25/39/35 42/40/35 44/41/35
f 42/40/36 40/37/36 34/32/36
f 46/42/37 45/43/37 22/23/37
f 35/31/38 30/27/38 45/43/38
f 21/44/39 48/46/39 47/45/39
f 48/46/40 31/29/40 26/26/40
f 49/47/41 43/38/41 18/22/41
f 27/25/42 38/34/42 43/38/42
f 24/21/43 44/41/43 46/42/43
f 44/41/44 34/32/44 35/31/44
f 45/43/45 48/46/45 21/44/45
f 30/27/46 31/29/46 48/46/46
f 20/18/47 47/45/47 49/47/47
f 47/45/48 26/26/48 27/25/48
