# Blender v3.6.1 OBJ File: ''
# www.blender.org
mtllib goal.mtl
o 立方体.001_立方体.002
v 1.000000 -1.000000 -0.200000
v 1.000000 1.000000 -0.200000
v 1.000000 -1.000000 0.200000
v 1.000000 1.000000 0.200000
v 0.600000 -1.000000 -0.200000
v 0.600000 1.000000 -0.200000
v 0.600000 -1.000000 0.200000
v 0.600000 1.000000 0.200000
v 1.000000 0.442186 -0.200000
v 1.000000 0.442186 0.200000
v 0.600000 0.442186 0.200000
v 0.600000 0.442186 -0.200000
v -0.600000 -1.000000 -0.200000
v -0.600000 1.000000 -0.200000
v -0.600000 -1.000000 0.200000
v -0.600000 1.000000 0.200000
v -1.000000 -1.000000 -0.200000
v -1.000000 1.000000 -0.200000
v -1.000000 -1.000000 0.200000
v -1.000000 1.000000 0.200000
v -0.600000 0.442186 -0.200000
v -0.600000 0.442186 0.200000
v -1.000000 0.442186 0.200000
v -1.000000 0.442186 -0.200000
vt 0.744531 0.105000
vt 0.744531 0.049219
vt 0.944531 0.049219
vt 0.944531 0.105000
vt 0.744531 0.105000
vt 0.744531 0.049219
vt 0.944531 0.049219
vt 0.944531 0.105000
vt 0.564193 0.745952
vt 0.508411 0.745952
vt 0.508411 0.145952
vt 0.564192 0.145952
vt 0.744531 0.105000
vt 0.744531 0.049219
vt 0.944531 0.049219
vt 0.944531 0.105000
vt 0.950332 0.860065
vt 0.750332 0.860065
vt 0.750332 0.660064
vt 0.950332 0.660064
vt 0.950332 0.660065
vt 0.950332 0.860065
vt 0.750332 0.860065
vt 0.750332 0.660065
vt 0.744531 0.249219
vt 0.944531 0.249219
vt 0.743519 0.510710
vt 0.741569 0.366505
vt 0.941550 0.363801
vt 0.943501 0.508006
vt 0.744531 0.249219
vt 0.944531 0.249219
vt 0.744531 0.249219
vt 0.944531 0.249219
vt 0.744531 0.105000
vt 0.744531 0.049219
vt 0.944531 0.049219
vt 0.944531 0.105000
vt 0.744531 0.105000
vt 0.744531 0.049219
vt 0.944531 0.049219
vt 0.944531 0.105000
vt 0.744531 0.105000
vt 0.744531 0.049219
vt 0.944531 0.049219
vt 0.944531 0.105000
vt 0.950332 0.860065
vt 0.750332 0.860065
vt 0.750332 0.660064
vt 0.950332 0.660064
vt 0.950332 0.660065
vt 0.950332 0.860065
vt 0.750332 0.860065
vt 0.750332 0.660065
vt 0.744531 0.249219
vt 0.944531 0.249219
vt 0.744531 0.249219
vt 0.944531 0.249219
vt 0.744531 0.249219
vt 0.944531 0.249219
vt 0.743519 0.510710
vt 0.741569 0.366505
vt 0.941550 0.363801
vt 0.943501 0.508006
vt 0.585563 0.655468
vt 0.437228 0.655468
vt 0.437228 0.210464
vt 0.585563 0.210464
vt 0.436734 0.153867
vt 0.636734 0.153867
vt 0.636734 0.753867
vt 0.436734 0.753867
vt 0.277411 0.760310
vt 0.077411 0.760310
vt 0.077411 0.160310
vt 0.277411 0.160310
vn 1.0000 0.0000 0.0000
vn 0.0000 0.0000 1.0000
vn 0.0000 0.0000 -1.0000
vn 0.0000 -1.0000 0.0000
vn 0.0000 1.0000 0.0000
vn -1.0000 0.0000 0.0000
usemtl マテリアル
s off
f 9/1/1 2/2/1 4/3/1 10/4/1
f 10/5/2 4/6/2 8/7/2 11/8/2
f 11/9/2 8/10/2 16/11/2 22/12/2
f 12/13/3 6/14/3 2/15/3 9/16/3
f 3/17/4 7/18/4 5/19/4 1/20/4
f 8/21/5 4/22/5 2/23/5 6/24/5
f 5/25/3 12/13/3 9/16/3 1/26/3
f 7/27/6 11/28/6 12/29/6 5/30/6
f 3/31/2 10/5/2 11/8/2 7/32/2
f 1/33/1 9/1/1 10/4/1 3/34/1
f 22/35/2 16/36/2 20/37/2 23/38/2
f 23/39/6 20/40/6 18/41/6 24/42/6
f 24/43/3 18/44/3 14/45/3 21/46/3
f 15/47/4 19/48/4 17/49/4 13/50/4
f 20/51/5 16/52/5 14/53/5 18/54/5
f 17/55/3 24/43/3 21/46/3 13/56/3
f 19/57/6 23/39/6 24/42/6 17/58/6
f 15/59/2 22/35/2 23/38/2 19/60/2
f 13/61/1 21/62/1 22/63/1 15/64/1
f 8/65/5 6/66/5 14/67/5 16/68/5
f 12/69/4 11/70/4 22/71/4 21/72/4
f 6/73/3 12/74/3 21/75/3 14/76/3
